<?xml version="1.0" encoding="UTF-8"?>
<svg width="17px" height="79px" viewBox="0 0 17 79" version="1.1" xmlns="http://www.w3.org/2000/svg" xmlns:xlink="http://www.w3.org/1999/xlink">
    <!-- Generator: Sketch 52.2 (67145) - http://www.bohemiancoding.com/sketch -->
    <title>Intro</title>
    <desc>Created with Sketch.</desc>
    <g id="Page-1" stroke="none" stroke-width="1" fill="none" fill-rule="evenodd">
        <g id="Homepage_Static" transform="translate(-159.000000, -5359.000000)" fill="#862886">
            <g id="Pricing" transform="translate(134.000000, 5031.000000)">
                <g id="Table" transform="translate(0.000000, 105.000000)">
                    <path d="M-5.738,270 L-5.738,254.38 L-3.274,254.38 L-3.274,270 L-5.738,270 Z M6.01,259 L6.01,270 L3.546,270 L3.546,254.38 L5.482,254.38 L14.414,265.644 L14.414,254.402 L16.9,254.402 L16.9,270 L14.854,270 L6.01,259 Z M35.182,256.558 L29.99,256.558 L29.99,270 L27.504,270 L27.504,256.558 L22.29,256.558 L22.29,254.38 L35.182,254.38 L35.182,256.558 Z M40.572,270 L40.572,254.38 L47.37,254.38 C48.0740035,254.38 48.722997,254.526665 49.317,254.82 C49.911003,255.113335 50.4206645,255.498331 50.846,255.975 C51.2713355,256.451669 51.6049988,256.99433 51.847,257.603 C52.0890012,258.21167 52.21,258.83133 52.21,259.462 C52.21,259.990003 52.1366674,260.495998 51.99,260.98 C51.8433326,261.464002 51.6380013,261.911331 51.374,262.322 C51.1099987,262.732669 50.7873352,263.088332 50.406,263.389 C50.0246648,263.689668 49.6066689,263.913333 49.152,264.06 L52.826,270 L50.032,270 L46.644,264.566 L43.036,264.566 L43.036,270 L40.572,270 Z M43.036,262.388 L47.348,262.388 C47.7000018,262.388 48.0189986,262.311001 48.305,262.157 C48.5910014,262.002999 48.8366656,261.790335 49.042,261.519 C49.2473344,261.247665 49.4086661,260.936002 49.526,260.584 C49.6433339,260.231998 49.702,259.858002 49.702,259.462 C49.702,259.065998 49.632334,258.692002 49.493,258.34 C49.353666,257.987998 49.1703345,257.680001 48.943,257.416 C48.7156655,257.151999 48.4516682,256.943001 48.151,256.789 C47.8503318,256.634999 47.5386683,256.558 47.216,256.558 L43.036,256.558 L43.036,262.388 Z M64.904,270.11 C63.7893278,270.11 62.7736713,269.886336 61.857,269.439 C60.9403287,268.991664 60.1520033,268.39767 59.492,267.657 C58.8319967,266.91633 58.3223351,266.069338 57.963,265.116 C57.6036649,264.162662 57.424,263.187338 57.424,262.19 C57.424,261.148661 57.6146648,260.151338 57.996,259.198 C58.3773352,258.244662 58.9016633,257.401337 59.569,256.668 C60.2363367,255.934663 61.0283287,255.351669 61.945,254.919 C62.8616713,254.486331 63.8626612,254.27 64.948,254.27 C66.0626722,254.27 67.0783287,254.500998 67.995,254.963 C68.9116713,255.425002 69.6963301,256.029996 70.349,256.778 C71.0016699,257.526004 71.5076649,258.372995 71.867,259.319 C72.2263351,260.265005 72.406,261.229328 72.406,262.212 C72.406,263.253339 72.2190019,264.250662 71.845,265.204 C71.4709981,266.157338 70.94667,266.996996 70.272,267.723 C69.59733,268.449004 68.8016712,269.028331 67.885,269.461 C66.9683287,269.893669 65.974672,270.11 64.904,270.11 Z M59.932,262.19 C59.932,262.923337 60.0493322,263.634663 60.284,264.324 C60.5186678,265.013337 60.8523312,265.621997 61.285,266.15 C61.7176688,266.678003 62.2419969,267.099665 62.858,267.415 C63.4740031,267.730335 64.1633295,267.888 64.926,267.888 C65.718004,267.888 66.4183303,267.723002 67.027,267.393 C67.6356697,267.062998 68.1526645,266.626669 68.578,266.084 C69.0033355,265.541331 69.3259989,264.93267 69.546,264.258 C69.7660011,263.58333 69.876,262.894004 69.876,262.19 C69.876,261.441996 69.7586678,260.727003 69.524,260.045 C69.2893322,259.362997 68.9556688,258.761669 68.523,258.241 C68.0903312,257.720331 67.5696697,257.302335 66.961,256.987 C66.3523303,256.671665 65.6740037,256.514 64.926,256.514 C64.133996,256.514 63.4300031,256.678998 62.814,257.009 C62.1979969,257.339002 61.6773355,257.767997 61.252,258.296 C60.8266645,258.824003 60.5003345,259.428997 60.273,260.111 C60.0456655,260.793003 59.932,261.485996 59.932,262.19 Z" id="Intro" transform="translate(33.334000, 262.190000) rotate(-90.000000) translate(-33.334000, -262.190000) "></path>
                </g>
            </g>
        </g>
    </g>
</svg>