<?xml version="1.0" encoding="UTF-8"?>
<svg width="399px" height="25px" viewBox="0 0 399 25" version="1.1" xmlns="http://www.w3.org/2000/svg" xmlns:xlink="http://www.w3.org/1999/xlink">
    <!-- Generator: Sketch 52.2 (67145) - http://www.bohemiancoding.com/sketch -->
    <title>Group 18</title>
    <desc>Created with Sketch.</desc>
    <defs>
        <polygon id="path-1" points="0 0.303472222 17.93793 0.303472222 17.93793 24.5881944 0 24.5881944"></polygon>
        <polygon id="path-3" points="0 25 399 25 399 0 0 0"></polygon>
    </defs>
    <g id="Page-1" stroke="none" stroke-width="1" fill="none" fill-rule="evenodd">
        <g id="Homepage_Static" transform="translate(-133.000000, -73.000000)">
            <g id="Main" transform="translate(-44.000000, 0.000000)">
                <g id="Menu" transform="translate(177.000000, 68.000000)">
                    <g id="Group-18" transform="translate(0.000000, 5.000000)">
                        <g id="Group-3">
                            <mask id="mask-2" fill="white">
                                <use xlink:href="#path-1"></use>
                            </mask>
                            <g id="Clip-2"></g>
                            <path d="M8.80233,12.9284722 C11.87973,12.9284722 13.79793,11.1229167 13.79793,8.59513889 L13.79793,8.51875 C13.79793,5.67847222 11.84523,4.18541667 8.80233,4.18541667 L4.06893,4.18541667 L4.06893,12.9284722 L8.80233,12.9284722 Z M-0.00207,0.303472222 L9.13353,0.303472222 C14.55693,0.303472222 17.93793,3.52569444 17.93793,8.42152778 L17.93793,8.48402778 C17.93793,13.9354167 13.76343,16.7826389 8.67123,16.7826389 L4.06893,16.7826389 L4.06893,24.5881944 L-0.00207,24.5881944 L-0.00207,0.303472222 Z" id="Fill-1" fill="#852886" mask="url(#mask-2)"></path>
                        </g>
                        <mask id="mask-4" fill="white">
                            <use xlink:href="#path-3"></use>
                        </mask>
                        <g id="Clip-5"></g>
                        <polygon id="Fill-4" fill="#852886" mask="url(#mask-4)" points="29.435 25 33.565 25 33.565 0 29.435 0"></polygon>
                        <polygon id="Fill-6" fill="#852886" mask="url(#mask-4)" points="46 0 50.2590234 0 50.2590234 21.0037175 63 21.0037175 63 25 46 25"></polygon>
                        <path d="M87.573836,15.1433437 L83.4321622,5.21572523 L79.3190517,15.1433437 L87.573836,15.1433437 Z M81.5469866,0 L85.4530134,0 L96,25 L91.5512711,25 L89.1162525,19.00369 L77.7766352,19.00369 L75.3130534,25 L71,25 L81.5469866,0 Z" id="Fill-7" fill="#852886" mask="url(#mask-4)"></path>
                        <polygon id="Fill-8" fill="#852886" mask="url(#mask-4)" points="109.424165 4.06777238 102 4.06777238 102 0 121 0 121 4.06777238 113.575835 4.06777238 113.575835 25 109.424165 25"></polygon>
                        <polygon id="Fill-9" fill="#852886" mask="url(#mask-4)" points="132 0 149.821002 0 149.821002 3.93194166 136.224344 3.93194166 136.224344 10.4303689 148.274463 10.4303689 148.274463 14.3551616 136.224344 14.3551616 136.224344 21.0680583 150 21.0680583 150 25 132 25"></polygon>
                        <path d="M160,21.1078677 L162.451712,18.0567139 C164.681801,20.0722825 166.939592,21.2121212 169.792997,21.2121212 C172.320893,21.2121212 173.913813,19.9610787 173.913813,18.1540172 L173.913813,18.0845149 C173.913813,16.3469558 172.985764,15.4156241 168.671027,14.3730887 C163.719123,13.1220461 160.928049,11.5929942 160.928049,7.11704198 L160.928049,7.04753962 C160.928049,2.87739783 164.245479,0 168.864948,0 C172.258561,0 174.945748,1.07033639 177.3005,3.05115374 L175.111966,6.28301362 C173.020392,4.64970809 170.921893,3.78092855 168.802616,3.78092855 C166.40631,3.78092855 165.014236,5.06672227 165.014236,6.66527662 L165.014236,6.73477898 C165.014236,8.60439255 166.073875,9.43842091 170.554829,10.5504587 C175.472105,11.8015013 178,13.6433139 178,17.6675007 L178,17.7439533 C178,22.2894078 174.578684,25 169.689111,25 C166.143132,25 162.784148,23.7142063 160,21.1078677" id="Fill-10" fill="#852886" mask="url(#mask-4)"></path>
                        <path d="M209.357011,13.0465741 L209.357011,12.9964174 C209.357011,9.99417824 207.322878,7.50067174 204.479244,7.50067174 C201.62869,7.50067174 199.642989,9.9440215 199.642989,12.9534259 L199.642989,12.9964174 C199.642989,16.0058218 201.670203,18.4849978 204.520756,18.4849978 C207.364391,18.4849978 209.357011,16.0488133 209.357011,13.0465741 M197,13.0465741 L197,12.9964174 C197,8.64711151 200.113469,5 204.520756,5 C208.928044,5 212,8.60412002 212,12.9534259 L212,12.9964174 C212,17.3600537 208.886531,21 204.479244,21 C200.071956,21 197,17.39588 197,13.0465741" id="Fill-11" fill="#9A9C9E" mask="url(#mask-4)"></path>
                        <polygon id="Fill-12" fill="#9A9C9E" mask="url(#mask-4)" points="219 5 221.431655 5 229.417266 15.3728578 229.417266 5 232 5 232 20 229.805755 20 221.57554 9.32839277 221.57554 20 219 20"></polygon>
                        <path d="M262.298177,14.2479268 L255.939936,14.2479268 L255.939936,21.1038033 L262.590275,21.1038033 C265.327851,21.1038033 266.985341,19.9242208 266.985341,17.6722905 L266.985341,17.6079497 C266.985341,15.4989991 265.463711,14.2479268 262.298177,14.2479268 Z M265.721845,7.07034601 C265.721845,5.10437518 264.288523,3.89619674 261.713979,3.89619674 L255.939936,3.89619674 L255.939936,10.5304547 L261.421881,10.5304547 C263.989632,10.5304547 265.721845,9.42236202 265.721845,7.14183586 L265.721845,7.07034601 Z M252,0 L262.230247,0 C264.838756,0 266.897033,0.779239348 268.194494,2.20903632 C269.20665,3.32427795 269.72971,4.67543609 269.72971,6.35544753 L269.72971,6.42693737 C269.72971,9.42236202 268.160529,11.0308836 266.469074,12.0031456 C269.13872,12.9968544 271,14.6768659 271,18.0654847 L271,18.1369745 C271,22.6050901 267.644262,25 262.55631,25 L252,25 L252,0 Z" id="Fill-13" fill="#852886" mask="url(#mask-4)"></path>
                        <polygon id="Fill-14" fill="#852886" mask="url(#mask-4)" points="282 0 286.260833 0 286.260833 21.0037175 299 21.0037175 299 25 282 25"></polygon>
                        <path d="M327.592424,12.5622235 L327.592424,12.4930863 C327.592424,7.80558628 324.210197,3.89933628 319.460837,3.89933628 C314.718599,3.89933628 311.407576,7.7295354 311.407576,12.4239491 L311.407576,12.4930863 C311.407576,17.1944137 314.782683,21.0591814 319.532042,21.0591814 C324.281401,21.0591814 327.592424,17.2635509 327.592424,12.5622235 M307,12.5622235 L307,12.4930863 C307,5.69690265 312.190829,0 319.532042,0 C326.873255,0 332,5.62085177 332,12.4239491 L332,12.4930863 C332,19.3030973 326.809171,25 319.460837,25 C312.119624,25 307,19.3653208 307,12.5622235" id="Fill-15" fill="#852886" mask="url(#mask-4)"></path>
                        <path d="M363.592424,12.5622235 L363.592424,12.4930863 C363.592424,7.80558628 360.210197,3.89933628 355.467958,3.89933628 C350.718599,3.89933628 347.414697,7.7295354 347.414697,12.4239491 L347.414697,12.4930863 C347.414697,17.1944137 350.789803,21.0591814 355.532042,21.0591814 C360.281401,21.0591814 363.592424,17.2635509 363.592424,12.5622235 M343,12.5622235 L343,12.4930863 C343,5.69690265 348.190829,0 355.532042,0 C362.873255,0 368,5.62085177 368,12.4239491 L368,12.4930863 C368,19.3030973 362.809171,25 355.467958,25 C348.126745,25 343,19.3653208 343,12.5622235" id="Fill-16" fill="#852886" mask="url(#mask-4)"></path>
                        <path d="M389.185769,12.3891907 C392.151069,12.3891907 394.029793,10.7520732 394.029793,8.2070346 L394.029793,8.13554475 C394.029793,5.46182442 392.221171,3.99628253 389.150719,3.99628253 L383.135997,3.99628253 L383.135997,12.3891907 L389.185769,12.3891907 Z M379,0 L389.494217,0 C392.452506,0 394.772871,0.922219045 396.287066,2.49499571 C397.520855,3.85330283 398.228882,5.70488991 398.228882,7.88533028 L398.228882,7.96396912 C398.228882,12.0674864 395.915528,14.5338862 392.648791,15.5275951 L399,25 L394.092885,25 L388.316509,16.2782385 L383.135997,16.2782385 L383.135997,25 L379,25 L379,0 Z" id="Fill-17" fill="#852886" mask="url(#mask-4)"></path>
                    </g>
                </g>
            </g>
        </g>
    </g>
</svg>