<?xml version="1.0" encoding="UTF-8"?>
<svg width="66px" height="44px" viewBox="0 0 66 44" version="1.1" xmlns="http://www.w3.org/2000/svg" xmlns:xlink="http://www.w3.org/1999/xlink">
    <!-- Generator: Sketch 52.2 (67145) - http://www.bohemiancoding.com/sketch -->
    <title>”</title>
    <desc>Created with Sketch.</desc>
    <g id="Page-1" stroke="none" stroke-width="1" fill="none" fill-rule="evenodd">
        <g id="Homepage_Static" transform="translate(-1241.000000, -3422.000000)" fill="#862886">
            <g id="Quote" transform="translate(102.000000, 3219.000000)">
                <path d="M1204.05,221.95 C1204.05,231.250046 1200.50004,237.999979 1193.4,242.2 C1188.79998,244.900014 1184.55002,246.25 1180.65,246.25 C1179.95,246.25 1179.6,246.000002 1179.6,245.5 C1179.6,244.999998 1180,244.650001 1180.8,244.45 C1192.20006,241.749987 1197.9,235.900045 1197.9,226.9 C1197.9,221.399973 1195.95002,217.500011 1192.05,215.2 C1192.05,220.800028 1189.60002,223.6 1184.7,223.6 C1181.89999,223.6 1179.62501,222.725009 1177.875,220.975 C1176.12499,219.224991 1175.25,216.900015 1175.25,214 C1175.25,210.699984 1176.42499,208.05001 1178.775,206.05 C1181.12501,204.04999 1184.24998,203.05 1188.15,203.05 C1193.05002,203.05 1196.92499,204.749983 1199.775,208.15 C1202.62501,211.550017 1204.05,216.149971 1204.05,221.95 Z M1168.2,221.95 C1168.2,231.250046 1164.65004,237.999979 1157.55,242.2 C1152.94998,244.900014 1148.70002,246.25 1144.8,246.25 C1144.1,246.25 1143.75,246.000002 1143.75,245.5 C1143.75,244.999998 1144.15,244.650001 1144.95,244.45 C1156.35006,241.749987 1162.05,235.900045 1162.05,226.9 C1162.05,221.399973 1160.10002,217.500011 1156.2,215.2 C1156.2,220.800028 1153.75002,223.6 1148.85,223.6 C1146.04999,223.6 1143.77501,222.700009 1142.025,220.9 C1140.27499,219.099991 1139.4,216.800014 1139.4,214 C1139.4,210.699984 1140.57499,208.05001 1142.925,206.05 C1145.27501,204.04999 1148.39998,203.05 1152.3,203.05 C1157.20002,203.05 1161.07499,204.749983 1163.925,208.15 C1166.77501,211.550017 1168.2,216.149971 1168.2,221.95 Z" id="”"></path>
            </g>
        </g>
    </g>
</svg>