<?xml version="1.0" encoding="UTF-8"?>
<svg width="66px" height="44px" viewBox="0 0 66 44" version="1.1" xmlns="http://www.w3.org/2000/svg" xmlns:xlink="http://www.w3.org/1999/xlink">
    <!-- Generator: Sketch 52.2 (67145) - http://www.bohemiancoding.com/sketch -->
    <title>“</title>
    <desc>Created with Sketch.</desc>
    <g id="Page-1" stroke="none" stroke-width="1" fill="none" fill-rule="evenodd">
        <g id="Homepage_Static" transform="translate(-102.000000, -3219.000000)">
            <g id="Background" transform="translate(-195.000000, 158.000000)"></g>
            <g id="Quote" transform="translate(93.000000, 3186.000000)" fill="#862886">
                <path d="M74.3,65.4 C74.3,68.7000165 73.1250117,71.34999 70.775,73.35 C68.4249882,75.35001 65.3000195,76.35 61.4,76.35 C56.4999755,76.35 52.6250143,74.650017 49.775,71.25 C46.9249858,67.849983 45.5,63.250029 45.5,57.45 C45.5,48.249954 49.0499645,41.550021 56.15,37.35 C60.950024,34.549986 65.1999815,33.15 68.9,33.15 C69.6000035,33.15 69.95,33.3999975 69.95,33.9 C69.95,34.500003 69.550004,34.8499995 68.75,34.95 C57.349943,37.950015 51.65,43.749957 51.65,52.35 C51.65,57.950028 53.5999805,61.8999885 57.5,64.2 C57.5,58.4999715 59.999975,55.65 65,55.65 C67.7000135,55.65 69.9249913,56.5749907 71.675,58.425 C73.4250088,60.2750092 74.3,62.599986 74.3,65.4 Z M38.45,65.4 C38.45,68.7000165 37.2750118,71.34999 34.925,73.35 C32.5749883,75.35001 29.4500195,76.35 25.55,76.35 C20.6499755,76.35 16.7750143,74.650017 13.925,71.25 C11.0749858,67.849983 9.65,63.250029 9.65,57.45 C9.65,48.249954 13.1999645,41.550021 20.3,37.35 C25.100024,34.549986 29.3499815,33.15 33.05,33.15 C33.7500035,33.15 34.1,33.3999975 34.1,33.9 C34.1,34.500003 33.700004,34.8499995 32.9,34.95 C28.5999785,36.2500065 25.45001,37.4499945 23.45,38.55 C18.3499745,41.550015 15.8,46.1999685 15.8,52.5 C15.8,58.0000275 17.7499805,61.8999885 21.65,64.2 C21.65,58.4999715 24.149975,55.65 29.15,55.65 C31.950014,55.65 34.1999915,56.549991 35.9,58.35 C37.6000085,60.150009 38.45,62.4999855 38.45,65.4 Z" id="“"></path>
            </g>
        </g>
    </g>
</svg>