<?xml version="1.0" encoding="UTF-8"?>
<svg width="16px" height="120px" viewBox="0 0 16 120" version="1.1" xmlns="http://www.w3.org/2000/svg" xmlns:xlink="http://www.w3.org/1999/xlink">
    <!-- Generator: Sketch 52.2 (67145) - http://www.bohemiancoding.com/sketch -->
    <title>Regular</title>
    <desc>Created with Sketch.</desc>
    <g id="Page-1" stroke="none" stroke-width="1" fill="none" fill-rule="evenodd">
        <g id="Homepage_Static" transform="translate(-161.000000, -5713.000000)" fill="#FFFFFF">
            <g id="Pricing" transform="translate(134.000000, 5031.000000)">
                <g id="Table" transform="translate(0.000000, 105.000000)">
                    <path d="M-24.83,645 L-24.83,629.38 L-18.032,629.38 C-17.3279965,629.38 -16.679003,629.526665 -16.085,629.82 C-15.490997,630.113335 -14.9813355,630.498331 -14.556,630.975 C-14.1306645,631.451669 -13.7970012,631.99433 -13.555,632.603 C-13.3129988,633.21167 -13.192,633.83133 -13.192,634.462 C-13.192,634.990003 -13.2653326,635.495998 -13.412,635.98 C-13.5586674,636.464002 -13.7639987,636.911331 -14.028,637.322 C-14.2920013,637.732669 -14.6146648,638.088332 -14.996,638.389 C-15.3773352,638.689668 -15.7953311,638.913333 -16.25,639.06 L-12.576,645 L-15.37,645 L-18.758,639.566 L-22.366,639.566 L-22.366,645 L-24.83,645 Z M-22.366,637.388 L-18.054,637.388 C-17.7019982,637.388 -17.3830014,637.311001 -17.097,637.157 C-16.8109986,637.002999 -16.5653344,636.790335 -16.36,636.519 C-16.1546656,636.247665 -15.9933339,635.936002 -15.876,635.584 C-15.7586661,635.231998 -15.7,634.858002 -15.7,634.462 C-15.7,634.065998 -15.769666,633.692002 -15.909,633.34 C-16.048334,632.987998 -16.2316655,632.680001 -16.459,632.416 C-16.6863345,632.151999 -16.9503318,631.943001 -17.251,631.789 C-17.5516682,631.634999 -17.8633317,631.558 -18.186,631.558 L-22.366,631.558 L-22.366,637.388 Z M3.726,642.822 L3.726,645 L-6.988,645 L-6.988,629.38 L3.528,629.38 L3.528,631.558 L-4.524,631.558 L-4.524,636.002 L2.45,636.002 L2.45,638.048 L-4.524,638.048 L-4.524,642.822 L3.726,642.822 Z M20.182,643.064 C18.8619934,644.428007 17.3440086,645.11 15.628,645.11 C14.5866615,645.11 13.6186711,644.893669 12.724,644.461 C11.8293289,644.028331 11.0520033,643.445337 10.392,642.712 C9.7319967,641.978663 9.21500187,641.128005 8.841,640.16 C8.46699813,639.191995 8.28,638.180005 8.28,637.124 C8.28,636.067995 8.46699813,635.063338 8.841,634.11 C9.21500187,633.156662 9.7319967,632.32067 10.392,631.602 C11.0520033,630.88333 11.8366621,630.315002 12.746,629.897 C13.6553379,629.478998 14.645328,629.27 15.716,629.27 C17.2120075,629.27 18.4659949,629.581664 19.478,630.205 C20.4900051,630.828336 21.2526641,631.653328 21.766,632.68 L19.874,634.044 C19.4486645,633.193329 18.8620037,632.555335 18.114,632.13 C17.3659963,631.704665 16.5446711,631.492 15.65,631.492 C14.916663,631.492 14.2493363,631.649665 13.648,631.965 C13.0466637,632.280335 12.5333355,632.698331 12.108,633.219 C11.6826645,633.739669 11.3563345,634.344663 11.129,635.034 C10.9016655,635.723337 10.788,636.441996 10.788,637.19 C10.788,637.982004 10.916332,638.722663 11.173,639.412 C11.4296679,640.101337 11.7816644,640.702664 12.229,641.216 C12.6763356,641.729336 13.2079969,642.136332 13.824,642.437 C14.4400031,642.737668 15.1073297,642.888 15.826,642.888 C16.618004,642.888 17.3769964,642.704669 18.103,642.338 C18.8290036,641.971332 19.5219967,641.392004 20.182,640.6 L20.182,638.928 L16.904,638.928 L16.904,637.102 L22.25,637.102 L22.25,645 L20.182,645 L20.182,643.064 Z M34.878,642.888 C35.6993374,642.888 36.3813306,642.726668 36.924,642.404 C37.4666694,642.081332 37.9029984,641.659669 38.233,641.139 C38.5630016,640.618331 38.797666,640.024337 38.937,639.357 C39.076334,638.689663 39.146,638.004004 39.146,637.3 L39.146,629.38 L41.632,629.38 L41.632,637.3 C41.632,638.370672 41.5073346,639.378995 41.258,640.325 C41.0086654,641.271005 40.6126694,642.099663 40.07,642.811 C39.5273306,643.522337 38.8270043,644.083331 37.969,644.494 C37.1109957,644.904669 36.0806727,645.11 34.878,645.11 C33.6313271,645.11 32.5790043,644.893669 31.721,644.461 C30.8629957,644.028331 30.1700026,643.449004 29.642,642.723 C29.1139974,641.996996 28.7326678,641.164671 28.498,640.226 C28.2633322,639.287329 28.146,638.312005 28.146,637.3 L28.146,629.38 L30.61,629.38 L30.61,637.3 C30.61,638.01867 30.679666,638.711663 30.819,639.379 C30.958334,640.046337 31.1929983,640.640331 31.523,641.161 C31.8530017,641.681669 32.2929972,642.099665 32.843,642.415 C33.3930027,642.730335 34.0713293,642.888 34.878,642.888 Z M48.21,645 L48.21,629.38 L50.674,629.38 L50.674,642.822 L59.056,642.822 L59.056,645 L48.21,645 Z M68.956,629.38 L71.112,629.38 L77.272,645 L74.676,645 L73.026,640.754 L66.998,640.754 L65.37,645 L62.752,645 L68.956,629.38 Z M72.542,638.928 L70.034,632.218 L67.438,638.928 L72.542,638.928 Z M82.508,645 L82.508,629.38 L89.306,629.38 C90.0100035,629.38 90.658997,629.526665 91.253,629.82 C91.847003,630.113335 92.3566645,630.498331 92.782,630.975 C93.2073355,631.451669 93.5409988,631.99433 93.783,632.603 C94.0250012,633.21167 94.146,633.83133 94.146,634.462 C94.146,634.990003 94.0726674,635.495998 93.926,635.98 C93.7793326,636.464002 93.5740013,636.911331 93.31,637.322 C93.0459987,637.732669 92.7233352,638.088332 92.342,638.389 C91.9606648,638.689668 91.5426689,638.913333 91.088,639.06 L94.762,645 L91.968,645 L88.58,639.566 L84.972,639.566 L84.972,645 L82.508,645 Z M84.972,637.388 L89.284,637.388 C89.6360018,637.388 89.9549986,637.311001 90.241,637.157 C90.5270014,637.002999 90.7726656,636.790335 90.978,636.519 C91.1833344,636.247665 91.3446661,635.936002 91.462,635.584 C91.5793339,635.231998 91.638,634.858002 91.638,634.462 C91.638,634.065998 91.568334,633.692002 91.429,633.34 C91.289666,632.987998 91.1063345,632.680001 90.879,632.416 C90.6516655,632.151999 90.3876682,631.943001 90.087,631.789 C89.7863318,631.634999 89.4746683,631.558 89.152,631.558 L84.972,631.558 L84.972,637.388 Z" id="Regular" transform="translate(34.966000, 637.190000) rotate(-90.000000) translate(-34.966000, -637.190000) "></path>
                </g>
            </g>
        </g>
    </g>
</svg>